DBRep_DrawableShape

CASCADE Topology V3, (c) Open Cascade
Locations 0
Curve2ds 57
1 0 0 1 0 
1 0 0 1 0 
1 0 0 1 0 
1 0 0 1 0 
1 3 0 0 -1 
1 0 0 0 1 
1 3 0 0 -1 
1 0 -30 1 0 
1 0 0 1 0 
1 0 -30 1 0 
1 0 0 1 0 
1 0 0 0 -1 
1 0 0 0 1 
1 0 0 0 -1 
1 0 0 0 1 
1 0 0 1 0 
1 0 0 0 1 
1 0 0 1 0 
1 0 3 1 0 
1 0 3 1 0 
1 3 0 0 1 
1 0 0 1 0 
1 3 0 0 1 
1 0 0 1 0 
1 0 0 1 0 
1 40 0 0 -1 
1 0 0 0 1 
1 0 -30 1 0 
1 0 0 1 0 
1 0 0 0 1 
1 0 30 1 0 
1 0 0 0 1 
1 0 -30 1 0 
1 0 3 1 0 
1 0 3 1 0 
1 3 0 0 1 
1 0 30 1 0 
1 3 0 0 1 
1 0 0 0 -1 
1 3 0 0 1 
1 3 0 0 1 
1 0 0 1 0 
1 0 65 1 0 
1 40 0 0 1 
1 0 0 1 0 
1 40 0 0 1 
1 0 30 1 0 
1 40 0 0 -1 
1 3 0 0 1 
1 0 -30 1 0 
1 0 65 1 0 
1 0 0 0 -1 
1 65 0 0 1 
1 3 0 0 -1 
1 65 0 0 1 
8 0 30
1 3 0 0 1 
8 0 30
1 3 0 0 -1 
Curves 22
1 0 0 0 0 0 1 
1 0 0 3 -0 1 0 
1 0 30 0 0 0 1 
1 0 0 0 -0 1 0 
1 0 0 0 1 0 -0 
1 3 0 0 0 0 1 
1 0 0 3 1 0 -0 
1 0 0 0 0 0 1 
1 0 0 40 -0 1 0 
1 0 30 0 0 0 1 
1 0 30 0 1 0 -0 
1 3 30 0 0 0 1 
1 0 30 3 1 0 -0 
1 3 0 0 -0 1 0 
1 65 0 0 0 0 1 
1 0 0 40 1 0 -0 
1 0 30 40 1 0 -0 
1 3 0 40 -0 1 0 
1 65 30 0 0 0 1 
1 65 0 0 -0 1 0 
1 65 0 3 -0 1 0 
1 3 0 3 -0 1 0 
Polygon3D 0
PolygonOnTriangulations 0
Surfaces 12
1 0 0 0 1 0 -0 0 0 1 0 -1 0 
1 0 0 0 -0 1 0 0 0 1 1 0 -0 
1 0 0 0 1 0 -0 0 0 1 0 -1 0 
1 0 0 0 -0 1 0 0 0 1 1 0 -0 
1 0 0 3 0 0 1 1 0 -0 -0 1 0 
1 0 30 0 -0 1 0 0 0 1 1 0 -0 
1 0 30 0 -0 1 0 0 0 1 1 0 -0 
1 0 0 0 0 0 1 1 0 -0 -0 1 0 
1 3 0 0 1 0 -0 0 0 1 0 -1 0 
1 0 0 40 0 0 1 1 0 -0 -0 1 0 
1 0 0 0 0 0 1 1 0 -0 -0 1 0 
1 65 0 0 1 0 -0 0 0 1 0 -1 0 
Triangulations 0

TShapes 75
Ve
1e-07
0 0 0
0 0

0101101
*
Ve
1e-07
0 0 3
0 0

0101101
*
Ed
 1e-07 1 1 0
1  1 0 0 3
2  1 1 0 0 3
2  2 2 0 0 3
2  3 3 0 0 3
2  4 4 0 0 3
0

0101000
+75 0 -74 0 *
Ve
1e-07
0 30 3
0 0

0101101
*
Ed
 1e-07 1 1 0
1  2 0 0 30
2  5 1 0 0 30
2  6 5 0 0 30
2  7 3 0 0 30
0

0101000
-72 0 +74 0 *
Ve
1e-07
0 30 0
0 0

0101101
*
Ed
 1e-07 1 1 0
1  3 0 0 3
2  8 1 0 0 3
2  9 6 0 0 3
2  10 3 0 0 3
2  11 7 0 0 3
0

0101000
+70 0 -72 0 *
Ed
 1e-07 1 1 0
1  4 0 0 30
2  12 1 0 0 30
2  13 8 0 0 30
2  14 3 0 0 30
0

0101000
+75 0 -70 0 *
Wi

0101100
-73 0 -71 0 +69 0 +68 0 *
Fa
0  1e-07 1 0

0101000
+67 0 *
Ve
1e-07
3 0 0
0 0

0101101
*
Ed
 1e-07 1 1 0
1  5 0 0 3
2  15 2 0 0 3
2  16 8 0 0 3
2  17 4 0 0 3
0

0101000
+75 0 -65 0 *
Ve
1.5e-07
3 0 3
0 0

0101101
*
Ed
 1e-07 1 1 0
1  6 0 0 3
2  18 9 0 0 3
2  19 4 0 0 3
2  20 2 0 0 3
0

0101000
+65 0 -63 0 *
Ed
 1e-07 1 1 0
1  7 0 0 3
2  21 2 0 0 3
2  22 5 0 0 3
2  23 4 0 0 3
0

0101000
+74 0 -63 0 *
Wi

0101100
-64 0 -62 0 +61 0 +73 0 *
Fa
0  1e-07 2 0

0101000
+60 0 *
Ve
1e-07
0 0 40
0 0

0101101
*
Ed
 1e-07 1 1 0
1  8 0 3 40
2  24 3 0 3 40
2  25 4 0 3 40
0

0101000
+74 0 -58 0 *
Ve
1e-07
0 30 40
0 0

0101101
*
Ed
 1e-07 1 1 0
1  9 0 0 30
2  26 3 0 0 30
2  27 10 0 0 30
0

0101000
-56 0 +58 0 *
Ed
 1e-07 1 1 0
1  10 0 3 40
2  28 3 0 3 40
2  29 7 0 3 40
0

0101000
+72 0 -56 0 *
Wi

0101100
-57 0 -55 0 +54 0 +71 0 *
Fa
0  1e-07 3 0

0101000
+53 0 *
Ve
1e-07
3 30 0
0 0

0101101
*
Ed
 1e-07 1 1 0
1  11 0 0 3
2  30 6 0 0 3
2  31 8 0 0 3
2  32 7 0 0 3
0

0101000
+70 0 -51 0 *
Ve
1.5e-07
3 30 3
0 0

0101101
*
Ed
 1e-07 1 1 0
1  12 0 0 3
2  33 9 0 0 3
2  34 7 0 0 3
2  35 6 0 0 3
0

0101000
+51 0 -49 0 *
Ed
 1e-07 1 1 0
1  13 0 0 3
2  36 6 0 0 3
2  37 5 0 0 3
2  38 7 0 0 3
0

0101000
+72 0 -49 0 *
Wi

0101100
-50 0 -48 0 +47 0 +69 0 *
Fa
0  1e-07 6 0

0101000
+46 0 *
Ed
 1e-07 1 1 0
1  14 0 0 30
2  39 9 0 0 30
2  40 11 0 0 30
2  41 8 0 0 30
0

0101000
-51 0 +65 0 *
Wi

0101100
-68 0 -50 0 +44 0 +64 0 *
Fa
0  1e-07 8 0

0101000
+43 0 *
Ve
1e-07
65 0 0
0 0

0101101
*
Ed
 1e-07 1 1 0
1  5 0 3 65
2  15 2 0 3 65
2  16 8 0 3 65
0

0101000
+65 0 -41 0 *
Ve
1e-07
65 0 3
0 0

0101101
*
Ed
 1e-07 1 1 0
1  15 0 0 3
2  42 12 0 0 3
2  43 2 0 0 3
0

0101000
-39 0 +41 0 *
Ed
 1e-07 1 1 0
1  7 0 3 65
2  21 2 0 3 65
2  22 5 0 3 65
0

0101000
+63 0 -39 0 *
Wi

0101100
-40 0 -38 0 +37 0 +62 0 *
Fa
0  1e-07 2 0

0101000
+36 0 *
Ve
1e-07
3 0 40
0 0

0101101
*
Ed
 1e-07 1 1 0
1  6 0 3 40
2  18 9 0 3 40
2  19 4 0 3 40
0

0101000
+63 0 -34 0 *
Ed
 1e-07 1 1 0
1  16 0 0 3
2  44 4 0 0 3
2  45 10 0 0 3
0

0101000
-34 0 +58 0 *
Wi

0101100
-61 0 -33 0 +32 0 +57 0 *
Fa
0  1e-07 4 0

0101000
+31 0 *
Ve
1e-07
3 30 40
0 0

0101101
*
Ed
 1e-07 1 1 0
1  17 0 0 3
2  46 7 0 0 3
2  47 10 0 0 3
0

0101000
-29 0 +56 0 *
Ed
 1e-07 1 1 0
1  18 0 0 30
2  48 9 0 0 30
2  49 10 0 0 30
0

0101000
-29 0 +34 0 *
Wi

0101100
-55 0 -28 0 +27 0 +32 0 *
Fa
0  1e-07 10 0

0111000
+26 0 *
Ed
 1e-07 1 1 0
1  12 0 3 40
2  33 9 0 3 40
2  34 7 0 3 40
0

0101000
+49 0 -29 0 *
Wi

0101100
-47 0 -24 0 +28 0 +54 0 *
Fa
0  1e-07 7 0

0101000
+23 0 *
Ve
1e-07
65 30 0
0 0

0101101
*
Ed
 1e-07 1 1 0
1  11 0 3 65
2  30 6 0 3 65
2  31 8 0 3 65
0

0101000
+51 0 -21 0 *
Ve
1e-07
65 30 3
0 0

0101101
*
Ed
 1e-07 1 1 0
1  19 0 0 3
2  50 12 0 0 3
2  51 6 0 0 3
0

0101000
-19 0 +21 0 *
Ed
 1e-07 1 1 0
1  13 0 3 65
2  36 6 0 3 65
2  37 5 0 3 65
0

0101000
+49 0 -19 0 *
Wi

0101100
-20 0 -18 0 +17 0 +48 0 *
Fa
0  1e-07 6 0

0101000
+16 0 *
Ed
 1e-07 1 1 0
1  20 0 0 30
2  52 12 0 0 30
2  53 8 0 0 30
0

0101000
-21 0 +41 0 *
Wi

0101100
-44 0 -20 0 +14 0 +40 0 *
Fa
0  1e-07 8 0

0101000
+13 0 *
Ed
 1e-07 1 1 0
1  21 0 0 30
2  54 12 0 0 30
2  55 5 0 0 30
0

0101000
-19 0 +39 0 *
Wi

0101100
-38 0 -11 0 +18 0 +14 0 *
Fa
0  1e-07 12 0

0111000
+10 0 *
Ed
 1.5e-07 1 1 0
1  22 0 0 30
2  56 5 0 0 30
2  57 9 0 0 30
0

0101000
+63 0 -49 0 *
Wi

0101100
-17 0 +11 0 +37 0 -8 0 *
Fa
0  1e-07 5 0

0101000
+7 0 *
Wi

0101100
-33 0 -27 0 +24 0 +8 0 *
Fa
0  1e-07 9 0

0101000
+5 0 *
Sh

0101100
-66 0 -59 0 -52 0 +45 0 -42 0 -35 0 -30 0 +25 0 +22 0 +15 0 
-12 0 +9 0 +6 0 +4 0 *
So

0100000
+3 0 *
Co

1100000
+2 0 *

+1 0 